<?xml version="1.0" encoding="UTF-8"?>
<!DOCTYPE svg PUBLIC "-//W3C//DTD SVG 1.1//EN" "http://www.w3.org/Graphics/SVG/1.1/DTD/svg11.dtd">
<svg xmlns="http://www.w3.org/2000/svg" version="1.1" width="1239px" height="1754px" style="shape-rendering:geometricPrecision; text-rendering:geometricPrecision; image-rendering:optimizeQuality; fill-rule:evenodd; clip-rule:evenodd" xmlns:xlink="http://www.w3.org/1999/xlink">
<g><path style="opacity:1" fill="#fefefe" d="M -0.5,-0.5 C 412.5,-0.5 825.5,-0.5 1238.5,-0.5C 1238.5,584.167 1238.5,1168.83 1238.5,1753.5C 825.5,1753.5 412.5,1753.5 -0.5,1753.5C -0.5,1168.83 -0.5,584.167 -0.5,-0.5 Z"/></g>
<g><path style="opacity:1" fill="#000000" d="M 213.5,603.5 C 203.76,605.436 193.76,606.102 183.5,605.5C 183.5,602.5 183.5,599.5 183.5,596.5C 187.466,517.515 191.133,438.515 194.5,359.5C 480.167,359.5 765.833,359.5 1051.5,359.5C 1055.64,441.812 1059.31,524.145 1062.5,606.5C 1052.5,606.5 1042.5,606.5 1032.5,606.5C 1029.82,574.298 1022.32,543.298 1010,513.5C 987.23,469.848 951.73,442.681 903.5,432C 891.247,429.76 878.914,428.093 866.5,427C 809.168,426.5 751.834,426.333 694.5,426.5C 694.5,542.167 694.5,657.833 694.5,773.5C 644.833,773.5 595.167,773.5 545.5,773.5C 545.5,657.833 545.5,542.167 545.5,426.5C 489.499,426.333 433.499,426.5 377.5,427C 301.978,427.544 251.812,463.378 227,534.5C 219.485,556.908 214.985,579.908 213.5,603.5 Z"/></g>
<g><path style="opacity:1" fill="#333333" d="M 183.5,596.5 C 183.5,599.5 183.5,602.5 183.5,605.5C 193.76,606.102 203.76,605.436 213.5,603.5C 213.5,604.5 213.5,605.5 213.5,606.5C 203.167,606.5 192.833,606.5 182.5,606.5C 182.187,602.958 182.521,599.625 183.5,596.5 Z"/></g>
<g><path style="opacity:1" fill="#040404" d="M 871.5,818.5 C 873.792,818.244 875.959,818.577 878,819.5C 893.806,861.754 909.306,904.087 924.5,946.5C 917.833,946.5 911.167,946.5 904.5,946.5C 902.444,937.665 899.778,928.998 896.5,920.5C 881.167,919.167 865.833,919.167 850.5,920.5C 847.094,929.052 844.094,937.719 841.5,946.5C 834.833,946.5 828.167,946.5 821.5,946.5C 838.167,903.833 854.833,861.167 871.5,818.5 Z"/></g>
<g><path style="opacity:1" fill="#020202" d="M 622.5,820.5 C 622.5,862.167 622.5,903.833 622.5,945.5C 616.833,945.5 611.167,945.5 605.5,945.5C 605.832,908.996 605.498,872.663 604.5,836.5C 595.5,836.5 586.5,836.5 577.5,836.5C 575.634,860.999 571.134,884.999 564,908.5C 560.639,918.223 555.973,927.223 550,935.5C 541.922,944.572 531.755,948.572 519.5,947.5C 519.5,941.833 519.5,936.167 519.5,930.5C 528.666,930.5 535.499,926.5 540,918.5C 548.6,901.032 554.6,882.699 558,863.5C 560.383,849.215 562.217,834.882 563.5,820.5C 583.167,820.5 602.833,820.5 622.5,820.5 Z"/></g>
<g><path style="opacity:1" fill="#010101" d="M 742.5,820.5 C 767.167,820.5 791.833,820.5 816.5,820.5C 816.5,825.833 816.5,831.167 816.5,836.5C 797.833,836.5 779.167,836.5 760.5,836.5C 760.5,873.167 760.5,909.833 760.5,946.5C 754.5,946.5 748.5,946.5 742.5,946.5C 742.5,904.5 742.5,862.5 742.5,820.5 Z"/></g>
<g><path style="opacity:1" fill="#010101" d="M 318.5,820.5 C 351.833,820.5 385.167,820.5 418.5,820.5C 418.5,825.833 418.5,831.167 418.5,836.5C 404.5,836.5 390.5,836.5 376.5,836.5C 376.5,873.167 376.5,909.833 376.5,946.5C 370.5,946.5 364.5,946.5 358.5,946.5C 358.5,909.833 358.5,873.167 358.5,836.5C 345.167,836.5 331.833,836.5 318.5,836.5C 318.5,831.167 318.5,825.833 318.5,820.5 Z"/></g>
<g><path style="opacity:1" fill="#030303" d="M 435.5,820.5 C 460.5,820.5 485.5,820.5 510.5,820.5C 510.5,825.833 510.5,831.167 510.5,836.5C 491.5,836.5 472.5,836.5 453.5,836.5C 452.505,847.654 452.172,858.988 452.5,870.5C 466.5,870.5 480.5,870.5 494.5,870.5C 494.5,875.5 494.5,880.5 494.5,885.5C 480.833,885.5 467.167,885.5 453.5,885.5C 453.5,900.167 453.5,914.833 453.5,929.5C 472.167,929.5 490.833,929.5 509.5,929.5C 509.5,934.833 509.5,940.167 509.5,945.5C 484.833,945.5 460.167,945.5 435.5,945.5C 435.5,903.833 435.5,862.167 435.5,820.5 Z"/></g>
<g><path style="opacity:1" fill="#030303" d="M 706.5,885.5 C 692.833,885.5 679.167,885.5 665.5,885.5C 665.171,900.343 665.504,915.01 666.5,929.5C 685.167,929.5 703.833,929.5 722.5,929.5C 722.5,935.167 722.5,940.833 722.5,946.5C 697.5,946.5 672.5,946.5 647.5,946.5C 647.5,904.5 647.5,862.5 647.5,820.5C 672.833,820.5 698.167,820.5 723.5,820.5C 723.5,825.833 723.5,831.167 723.5,836.5C 704.167,836.5 684.833,836.5 665.5,836.5C 665.5,847.833 665.5,859.167 665.5,870.5C 679.167,870.5 692.833,870.5 706.5,870.5C 706.5,875.5 706.5,880.5 706.5,885.5 Z"/></g>
<g><path style="opacity:1" fill="#565555" d="M 622.5,820.5 C 623.499,862.33 623.832,904.33 623.5,946.5C 617.167,946.5 610.833,946.5 604.5,946.5C 604.5,909.833 604.5,873.167 604.5,836.5C 605.498,872.663 605.832,908.996 605.5,945.5C 611.167,945.5 616.833,945.5 622.5,945.5C 622.5,903.833 622.5,862.167 622.5,820.5 Z"/></g>
<g><path style="opacity:1" fill="#faf9f9" d="M 890.5,905.5 C 878.988,905.828 867.654,905.495 856.5,904.5C 861.828,887.348 867.662,870.348 874,853.5C 880.007,870.687 885.507,888.021 890.5,905.5 Z"/></g>
<g><path style="opacity:1" fill="#8b8a8a" d="M 453.5,836.5 C 453.5,847.5 453.5,858.5 453.5,869.5C 467.344,869.171 481.01,869.504 494.5,870.5C 480.5,870.5 466.5,870.5 452.5,870.5C 452.172,858.988 452.505,847.654 453.5,836.5 Z"/></g>
<g><path style="opacity:1" fill="#dad9d9" d="M 706.5,885.5 C 693.344,886.496 680.01,886.829 666.5,886.5C 666.5,900.833 666.5,915.167 666.5,929.5C 666.5,915.167 666.5,900.833 666.5,886.5C 680.01,886.829 693.344,886.496 706.5,885.5 Z"/></g>
<g><path style="opacity:1" fill="#a9a8a8" d="M 856.5,904.5 C 867.654,905.495 878.988,905.828 890.5,905.5C 878.993,906.824 867.327,906.824 855.5,905.5C 855.624,904.893 855.957,904.56 856.5,904.5 Z"/></g>
<g><path style="opacity:1" fill="#4f4f4f" d="M 435.5,820.5 C 435.5,862.167 435.5,903.833 435.5,945.5C 460.167,945.5 484.833,945.5 509.5,945.5C 484.672,946.498 459.672,946.831 434.5,946.5C 434.168,904.33 434.501,862.33 435.5,820.5 Z"/></g>
<g><path style="opacity:1" fill="#000000" d="M 792.5,1378.5 C 808.658,1379.5 824.991,1379.83 841.5,1379.5C 841.5,1388.83 841.5,1398.17 841.5,1407.5C 693.5,1407.5 545.5,1407.5 397.5,1407.5C 397.5,1398.17 397.5,1388.83 397.5,1379.5C 416.857,1379.81 436.191,1379.31 455.5,1378C 484.051,1375.81 507.551,1363.98 526,1342.5C 532.136,1333.77 536.136,1324.1 538,1313.5C 542.253,1292.05 544.586,1270.39 545,1248.5C 545.5,1159.5 545.667,1070.5 545.5,981.5C 595.167,981.5 644.833,981.5 694.5,981.5C 694.333,1071.17 694.5,1160.83 695,1250.5C 694.775,1278.48 698.775,1305.82 707,1332.5C 714.951,1349.12 727.451,1360.95 744.5,1368C 759.817,1374.66 775.817,1378.16 792.5,1378.5 Z"/></g>
<g><path style="opacity:1" fill="#676767" d="M 792.5,1378.5 C 809.167,1378.5 825.833,1378.5 842.5,1378.5C 842.827,1388.68 842.494,1398.68 841.5,1408.5C 841.5,1408.17 841.5,1407.83 841.5,1407.5C 841.5,1398.17 841.5,1388.83 841.5,1379.5C 824.991,1379.83 808.658,1379.5 792.5,1378.5 Z"/></g>
<g><path style="opacity:1" fill="#141414" d="M 397.5,1379.5 C 397.5,1388.83 397.5,1398.17 397.5,1407.5C 545.5,1407.5 693.5,1407.5 841.5,1407.5C 841.5,1407.83 841.5,1408.17 841.5,1408.5C 693.167,1408.5 544.833,1408.5 396.5,1408.5C 396.173,1398.65 396.506,1388.99 397.5,1379.5 Z"/></g>
</svg>
